<?xml version="1.0" standalone="no"?>
<!DOCTYPE svg PUBLIC "-//W3C//DTD SVG 20010904//EN"
 "http://www.w3.org/TR/2001/REC-SVG-20010904/DTD/svg10.dtd">
<svg version="1.0" xmlns="http://www.w3.org/2000/svg"
 width="200.000000pt" height="200.000000pt" viewBox="0 0 200.000000 200.000000"
 preserveAspectRatio="xMidYMid meet">

<g transform="translate(0.000000,200.000000) scale(0.100000,-0.100000)"
fill="#000000" stroke="none">
<path d="M903 1890 c-283 -51 -485 -302 -471 -585 l4 -80 -67 -34 c-132 -64
-245 -196 -289 -337 -62 -202 -14 -405 132 -560 193 -204 489 -238 727 -84
l61 40 61 -40 c238 -154 534 -120 727 84 146 155 194 358 132 560 -44 141
-157 273 -289 337 l-67 34 4 80 c13 256 -158 496 -407 569 -69 20 -191 28
-258 16z m236 -45 c212 -56 371 -243 397 -467 8 -70 -2 -148 -19 -143 -7 2
-23 6 -37 9 -24 5 -25 8 -22 65 16 280 -246 516 -525 472 -269 -42 -445 -306
-378 -566 32 -121 121 -234 230 -291 52 -27 55 -31 49 -59 -3 -16 -8 -33 -11
-38 -10 -16 -142 66 -202 126 -112 112 -172 274 -157 424 23 219 183 410 393
468 65 18 216 18 282 0z m44 -133 c85 -42 156 -113 197 -195 34 -70 56 -177
46 -230 l-6 -34 -88 -6 c-111 -6 -205 -42 -314 -120 -14 -9 -22 -9 -35 0 -110
78 -204 114 -315 120 -87 6 -87 6 -94 35 -8 41 4 132 27 194 43 115 144 214
261 256 41 14 75 18 154 16 90 -3 107 -7 167 -36z m-434 -507 c96 -23 177 -70
256 -150 61 -61 106 -128 94 -139 -2 -2 -18 -6 -35 -8 -26 -3 -36 4 -75 52
-87 106 -189 164 -311 177 -52 5 -61 9 -74 34 -7 15 -14 33 -14 39 0 15 85 12
159 -5z m749 0 c189 -45 359 -211 401 -395 15 -66 13 -197 -4 -265 -47 -179
-201 -333 -380 -380 -74 -19 -203 -19 -274 0 -64 17 -145 56 -186 89 l-30 25
27 27 c25 26 28 27 45 11 34 -30 147 -76 213 -86 299 -47 567 219 520 516 -21
136 -116 275 -228 336 -152 82 -354 73 -486 -22 l-40 -28 -25 30 -25 29 25 19
c40 31 146 81 202 95 71 17 169 17 245 -1z m-1041 -50 l11 -35 -59 -31 c-71
-38 -157 -126 -194 -198 -167 -331 110 -716 475 -660 148 22 279 119 347 256
35 70 38 84 41 179 l4 102 32 5 c17 2 34 3 39 0 13 -8 7 -157 -8 -218 -26
-102 -63 -165 -144 -246 -113 -113 -222 -159 -376 -159 -151 0 -274 51 -379
156 -105 105 -156 228 -156 379 0 151 47 263 154 371 58 58 165 131 197 134 3
0 10 -16 16 -35z m269 -59 c55 -14 147 -61 165 -82 8 -10 5 -23 -11 -49 -26
-41 -37 -41 -113 7 -46 29 -127 112 -127 129 0 13 27 11 86 -5z m634 6 c0 -18
-77 -97 -124 -127 -80 -51 -90 -52 -116 -10 -16 26 -19 39 -11 49 37 44 251
119 251 88z m119 -7 c9 -9 -52 -96 -104 -147 -93 -93 -244 -157 -367 -158 -41
0 -46 10 -27 53 9 20 20 25 69 30 125 13 255 89 320 185 33 50 37 52 70 46 19
-3 37 -7 39 -9z m-964 -66 c42 -72 151 -171 229 -209 l66 -33 0 -96 c0 -112
18 -190 62 -273 36 -68 38 -66 -72 -120 -61 -31 -71 -33 -175 -33 -108 0 -113
1 -186 37 -93 46 -158 112 -202 206 -30 63 -32 74 -32 177 0 105 2 114 34 179
38 77 116 160 182 193 24 13 49 23 54 23 6 0 24 -23 40 -51z m1103 4 c60 -40
119 -112 154 -188 19 -42 22 -67 23 -160 0 -103 -2 -114 -32 -177 -44 -94
-109 -160 -202 -206 -73 -36 -78 -37 -186 -37 -104 0 -114 2 -175 33 -110 54
-108 52 -72 120 44 83 62 161 62 273 l0 96 66 33 c79 39 187 137 229 209 35
60 47 61 133 4z m-660 -86 l21 -23 -27 -64 c-24 -58 -27 -77 -27 -180 0 -104
3 -120 27 -174 l28 -58 -21 -29 c-11 -16 -24 -29 -29 -29 -13 0 -58 98 -75
165 -19 75 -19 184 0 258 16 62 60 157 73 157 5 0 18 -10 30 -23z m90 -256 c3
-66 -29 -201 -48 -201 -28 0 -67 240 -43 264 4 4 25 6 48 4 l40 -3 3 -64z"/>
</g>
</svg>
